<svg width="16" height="24" viewBox="0 0 16 24" fill="none" xmlns="http://www.w3.org/2000/svg">
<path d="M5.45402 1.62638L5.45382 1.62618C5.27341 1.43526 5.05716 1.28174 4.81741 1.1744C4.57767 1.06706 4.31913 1.00798 4.05656 1.00056C3.79399 0.993128 3.53253 1.03749 3.2871 1.13111C3.04168 1.22473 2.81709 1.36577 2.62617 1.54619C2.43525 1.7266 2.28174 1.94285 2.1744 2.18259C2.06705 2.42233 2.00798 2.68087 2.00055 2.94344C1.99313 3.20602 2.03749 3.46748 2.13111 3.71291C2.2247 3.95826 2.36569 4.18278 2.54603 4.37367C2.54608 4.37372 2.54613 4.37378 2.54618 4.37383L9.74952 12.0001L2.54986 19.6243C2.36798 19.8132 2.225 20.036 2.12909 20.2801C2.0322 20.5268 1.98528 20.7901 1.99104 21.055C1.99681 21.3199 2.05516 21.581 2.16269 21.8232C2.27022 22.0653 2.4248 22.2837 2.61744 22.4656C2.81009 22.6475 3.03695 22.7894 3.28486 22.8829C3.53277 22.9763 3.79679 23.0196 4.06158 23.0102C4.32637 23.0008 4.58665 22.9389 4.82731 22.8281C5.06555 22.7183 5.27984 22.5628 5.45802 22.3704L13.9537 13.374C13.9538 13.3739 13.9539 13.3738 13.954 13.3736C14.3049 13.0023 14.5003 12.5109 14.5003 12C14.5003 11.489 14.3047 10.9973 13.9537 10.626L5.45402 1.62638Z" fill="#7A631F" stroke="#7A631F" stroke-width="2"/>
</svg>
