<svg width="140" height="140" viewBox="0 0 140 140" fill="none" xmlns="http://www.w3.org/2000/svg">
<g clip-path="url(#clip0)">
<path d="M137.949 115.363C136.816 115.363 135.898 116.281 135.898 117.414V131.117C135.898 131.307 135.744 131.462 135.553 131.462H127.761V101.5C127.761 100.367 126.843 99.4488 125.71 99.4488C124.577 99.4488 123.659 100.367 123.659 101.5V131.462H108.601L112.677 126.979C113.306 126.286 113.603 125.303 113.471 124.347C113.468 124.327 113.465 124.307 113.461 124.286L108.88 97.217L109.723 95.948L109.942 96.1038C110.694 96.6379 111.653 96.8326 112.58 96.601C113.491 96.3732 114.254 95.7604 114.673 94.9204V94.9201L119.335 85.5765L129.984 89.7008C130.405 89.8834 135.897 92.4021 135.897 98.9552V107.843C135.898 108.976 136.816 109.894 137.948 109.894C139.081 109.894 139.999 108.976 139.999 107.843V98.9555C139.999 89.4919 131.882 86.0463 131.537 85.9041C131.524 85.8986 131.511 85.8934 131.498 85.8885L113.364 78.8656V75.1304C116.195 72.8532 118.183 69.5712 118.78 65.8297C120.191 65.6525 121.501 65.0873 122.588 64.1525C124.147 62.8121 125.041 60.8616 125.041 58.8018C125.041 57.1577 124.47 55.5843 123.449 54.3347V48.8009C123.449 37.9711 114.638 29.1607 103.809 29.1607C98.9467 29.1607 94.4952 30.9403 91.0616 33.8775C91.0173 32.3061 90.4549 30.8087 89.4746 29.61V24.0764C89.4746 13.2467 80.6639 4.43628 69.8347 4.43628C59.005 4.43628 50.1946 13.247 50.1946 24.0764V29.7544C49.2088 30.9323 48.6573 32.3526 48.6086 33.86C46.4178 31.9878 43.7959 30.5782 40.8736 29.8088C39.7766 29.52 38.6563 30.1744 38.3679 31.2697C38.0794 32.3651 38.7334 33.487 39.8288 33.7755C46.641 35.5693 51.3988 41.7481 51.3988 48.8006V51.8678C51.3102 51.8494 51.0258 51.8005 51.0149 51.7988C50.987 51.22 50.8404 50.8664 50.5249 50.4125C49.9999 49.6581 49.0571 48.7183 46.0246 45.4589C44.944 44.2982 43.1962 44.0852 41.8695 44.9525C36.6756 48.3453 30.3655 50.0746 24.5095 49.7308C22.602 49.619 21.4107 50.4571 20.9029 51.8306C20.8575 51.838 20.3503 51.9402 20.3221 51.9471V48.8006C20.3221 42.0005 24.8661 35.8829 31.372 33.9232C32.4564 33.5967 33.0708 32.4526 32.7444 31.3679C32.4176 30.2832 31.2719 29.6688 30.1888 29.9958C26.2322 31.1874 22.6756 33.6686 20.175 36.9816C17.5875 40.4088 16.22 44.4959 16.22 48.8009V54.4791C15.187 55.7134 14.6283 57.2134 14.6283 58.8018C14.6283 62.3128 17.215 65.3747 20.9004 65.8314C21.5042 69.4853 23.4866 72.9894 26.6153 75.3719V78.8667L8.50198 85.8891C8.48913 85.894 8.47627 85.8992 8.46342 85.9044C8.11725 86.0463 0 89.4916 0 98.9552V131.117C0 133.569 1.995 135.564 4.44745 135.564H67.6035C68.4861 135.564 69.3073 135.302 70.0001 134.857C70.6925 135.302 71.5139 135.564 72.3968 135.564H135.553C138.005 135.564 140 133.569 140 131.117V117.414C140 116.281 139.082 115.363 137.949 115.363ZM20.6997 61.5939C19.4974 61.1575 18.7293 60.0454 18.7293 58.8013C18.7293 57.5946 19.6043 56.6031 20.6997 56.1326V61.5939ZM115.494 84.0887L111.469 92.1568C111.468 92.1562 106.997 88.9808 106.934 88.9357C108.862 86.5546 107.956 87.6732 111.967 82.7229L115.494 84.0887ZM103.969 86.0788L98.6651 79.5319V77.5645C100.389 78.1606 102.246 78.4357 103.994 78.4363C103.995 78.4363 103.995 78.4363 103.995 78.4363H103.996C105.803 78.436 107.633 78.0928 109.263 77.4795V79.5445L103.969 86.0788ZM106.377 93.5718L105.622 94.7074H102.316L101.562 93.5718L103.969 91.862L106.377 93.5718ZM69.9947 61.3541L64.6908 54.8072V52.8398C66.408 53.4335 68.2633 53.711 70.0201 53.7115C70.0204 53.7115 70.0209 53.7115 70.0212 53.7115H70.0215C71.8256 53.7115 73.6552 53.3695 75.2884 52.7551V54.8198L69.9947 61.3541ZM72.4023 68.8476L71.6479 69.9832H68.3417L67.5873 68.8476L69.9949 67.1378L72.4023 68.8476ZM53.8447 40.91C54.1799 41.0014 54.5244 41.0634 54.8742 41.1066C55.4779 44.7606 57.4603 48.2647 60.589 50.6471V54.1419L56.4051 55.7637C56.1626 55.2543 55.8593 54.7744 55.4995 54.3344V48.8009C55.4995 46.0178 54.9133 43.3425 53.8447 40.91ZM80.8925 38.7384C80.8925 44.7412 75.9958 49.6092 70.0215 49.6092C63.281 49.6092 58.7764 44.3851 58.7764 38.7384V29.132C65.2522 29.3912 71.9796 27.472 77.4797 24.0485C79.329 26.0315 80.4293 27.1835 80.8928 27.7183C80.8925 32.8242 80.8925 34.7957 80.8925 38.7384ZM84.8057 41.1053C85.1535 41.0615 85.4964 40.9992 85.8297 40.9081C84.7644 43.3253 84.1683 45.9941 84.1683 48.8009V54.4788C83.853 54.8553 83.5818 55.2565 83.3573 55.6773L79.3902 54.1411V50.406C82.2206 48.1285 84.2088 44.8464 84.8057 41.1053ZM61.9895 58.0015L67.0241 64.2156L63.5908 66.6541C63.5889 66.6555 63.5875 66.6569 63.5856 66.6582L62.4959 67.4323L58.4701 59.3646L61.9895 58.0015ZM74.7147 62.044L77.9924 57.9982L81.5195 59.364L77.4942 67.4323L76.4021 66.6569C76.401 66.656 76.3999 66.655 76.3988 66.6541L72.9593 64.211L74.7147 62.044ZM75.7483 71.2235L75.9679 71.3794C76.7346 71.9241 77.6968 72.104 78.6058 71.8765C79.5166 71.6487 80.2797 71.036 80.6992 70.196V70.1957L84.1603 63.2589C85.3495 64.7245 87.0694 65.6159 88.8408 65.8371C89.4664 69.7582 91.5858 73.1045 94.5635 75.3719V78.8664L77.1281 85.626L74.9051 72.4928L75.7483 71.2235ZM95.9638 82.7259L100.998 88.9401C98.7972 90.5039 96.5842 92.0758 96.4702 92.1568L92.4444 84.089L95.9638 82.7259ZM114.867 63.4631C114.867 69.3193 110.111 74.3339 103.996 74.3339C97.0253 74.3339 92.7506 68.8744 92.7506 63.4631V53.8567C99.1802 54.1135 105.916 52.2197 111.454 48.7733C113.303 50.7562 114.403 51.9082 114.867 52.4431C114.867 57.5487 114.867 59.5204 114.867 63.4631ZM120.94 58.8016C120.94 60.0479 120.169 61.1578 118.969 61.5939V56.015C120.209 56.4667 120.94 57.6001 120.94 58.8016ZM88.2701 48.8006C88.2701 40.2327 95.2408 33.2623 103.808 33.2623C112.376 33.2623 119.346 40.233 119.346 48.8006V51.8678C119.253 51.8483 118.997 51.804 118.963 51.7988C118.935 51.2194 118.787 50.8651 118.473 50.4125C117.934 49.6384 117.001 48.7148 113.972 45.4589C112.915 44.3236 111.171 44.068 109.817 44.9525C104.764 48.2535 98.3799 50.118 92.3049 49.7235C90.5984 49.6116 89.3622 50.4472 88.8506 51.8308C88.805 51.8382 88.2985 51.9405 88.2698 51.9473V48.8006H88.2701ZM88.6488 56.1328V61.5912C87.443 61.1564 86.6784 60.0413 86.6784 58.8013C86.6782 57.5946 87.5526 56.6037 88.6488 56.1328ZM86.9647 34.0771C86.9647 34.9406 86.5909 35.7574 85.9393 36.3177C85.6596 36.5583 85.3408 36.7431 84.9943 36.8692V31.2903C86.2207 31.7354 86.9647 32.8628 86.9647 34.0771ZM69.8339 8.53783C78.4018 8.53783 85.3722 15.5083 85.3722 24.0762V27.1433C85.2795 27.1242 85.0225 27.0796 84.9883 27.0744C84.958 26.4463 84.777 26.0602 84.4075 25.5607C83.8585 24.8175 82.8462 23.7956 79.9981 20.7342C78.9227 19.5795 77.1759 19.3566 75.8429 20.2278C70.5065 23.7141 64.0329 25.4108 58.1652 24.9905C56.7297 24.882 55.3781 25.7493 54.8766 27.1058C54.831 27.1132 54.3243 27.2155 54.2958 27.2223V24.0764H54.2956C54.2956 15.5083 61.2663 8.53783 69.8339 8.53783ZM54.674 31.4081V36.8695C53.4717 36.4331 52.7036 35.321 52.7036 34.0768C52.7036 32.877 53.5718 31.882 54.674 31.4081ZM51.0198 56.015C52.1671 56.4325 52.904 57.4336 52.977 58.6233C53.0689 59.9462 52.256 61.1425 51.0198 61.5914V56.015ZM50.8297 65.8366C52.764 65.5946 54.5395 64.5752 55.7038 63.007L59.2907 70.1957C59.2907 70.1957 59.2907 70.1957 59.291 70.196C59.7102 71.0362 60.4733 71.6487 61.3841 71.8765C62.2846 72.1015 63.2479 71.9293 64.022 71.3794L64.2416 71.2235L65.0846 72.4926L62.8623 85.6222L45.416 78.8653V75.1318H45.4157C48.3204 72.7898 50.2468 69.4807 50.8297 65.8366ZM36.0199 86.0788L30.716 79.5319V77.5645C32.4332 78.1582 34.2887 78.4357 36.0456 78.436C36.0458 78.436 36.0464 78.436 36.0467 78.436C37.8803 78.436 39.7069 78.0838 41.3136 77.4795V79.5445L36.0199 86.0788ZM38.4277 93.5718L37.6733 94.7074H34.3672L33.6128 93.5718L36.0204 91.862L38.4277 93.5718ZM44.0176 82.7229L47.545 84.089L43.5194 92.1568L42.4273 91.3813C42.4262 91.3805 42.4251 91.3794 42.424 91.3786L38.9845 88.9357L44.0176 82.7229ZM24.8016 63.4631V53.8567C31.3118 54.1168 38.0436 52.1721 43.5046 48.7733C45.3364 50.7376 46.4537 51.9077 46.9177 52.4431C46.9177 57.549 46.9177 59.5207 46.9177 63.4631C46.9177 69.4276 42.0546 74.3339 36.0467 74.3339C29.3576 74.3339 24.8016 69.1695 24.8016 63.4631ZM28.015 82.7259L33.0495 88.9401L29.6162 91.3786C29.6143 91.3799 29.613 91.3813 29.611 91.3827L28.5214 92.1568L24.4956 84.089L28.015 82.7259ZM16.3414 131.463V101.5C16.3414 100.367 15.4235 99.4488 14.2906 99.4488C13.1578 99.4488 12.2399 100.367 12.2399 101.5V131.462H4.44745C4.25659 131.462 4.10183 131.307 4.10183 131.117V98.9552C4.10183 92.3684 9.65178 89.8577 10.0111 89.7024L20.6535 85.5765L25.3159 94.9201C25.3159 94.9201 25.3159 94.9201 25.3162 94.9204C25.7353 95.7607 26.4985 96.3732 27.4096 96.601C28.31 96.826 29.2733 96.6537 30.0474 96.1038L30.267 95.948L31.11 97.217L26.5286 124.286C26.525 124.306 26.522 124.327 26.519 124.347C26.3872 125.302 26.6839 126.286 27.3136 126.979L31.3887 131.462H16.3414V131.463ZM30.6449 124.545L35.0005 98.8092H37.04L41.3959 124.545L36.0204 130.459L30.6449 124.545ZM67.9488 131.117C67.9488 131.307 67.7941 131.462 67.6035 131.462H59.8116V101.5C59.8116 100.367 58.8937 99.4488 57.7608 99.4488C56.628 99.4488 55.7101 100.367 55.7101 101.5V131.462H40.6519L44.7275 126.979C45.3569 126.286 45.6536 125.303 45.5215 124.347C45.5185 124.327 45.5155 124.307 45.5119 124.286L40.9305 97.217L41.7735 95.948L41.9931 96.1038C42.5419 96.4938 43.1916 96.6972 43.8508 96.6972C45.0537 96.6972 46.1739 96.0232 46.7246 94.9204V94.9201L51.3865 85.5768L62.0355 89.701C65.1395 91.0513 67.9485 94.5335 67.9485 98.9552V131.117H67.9488ZM69.9999 91.503C69.1503 90.1342 68.0194 88.8676 66.656 87.7867L68.975 74.0851H71.0146L73.3347 87.7938C71.935 88.9053 70.8188 90.1834 69.9999 91.503ZM84.2902 131.463V101.5C84.2902 100.367 83.3723 99.4488 82.2395 99.4488C81.1066 99.4488 80.1887 100.367 80.1887 101.5V131.462H72.3965C72.206 131.462 72.0509 131.307 72.0509 131.117V98.9552C72.0509 96.5173 72.8154 94.2718 74.444 92.3854C75.5299 91.1399 76.9701 90.1314 77.9604 89.7024L88.6029 85.5762L93.2653 94.9201C93.2653 94.9201 93.2653 94.9201 93.2655 94.9204C93.6847 95.7607 94.4479 96.3732 95.3587 96.601C96.2591 96.826 97.2224 96.6537 97.9965 96.1038L98.2161 95.948L99.0591 97.217L94.4777 124.286C94.4741 124.306 94.4711 124.327 94.4681 124.347C94.3363 125.302 94.633 126.286 95.2627 126.979L99.3377 131.462H84.2902V131.463ZM98.5937 124.546L102.95 98.8095H104.989L109.345 124.546L103.969 130.459L98.5937 124.546Z" fill="white"/>
</g>
<defs>
<clipPath id="clip0">
<rect width="140" height="140" fill="white"/>
</clipPath>
</defs>
</svg>
