<svg width="140" height="124" viewBox="0 0 140 124" fill="none" xmlns="http://www.w3.org/2000/svg">
<path d="M139.399 97.8124L112.078 70.4914C109.621 68.034 106.354 66.6808 102.878 66.6808C99.4033 66.6808 96.1362 68.034 93.6788 70.4914L89.7269 74.4431L76.0996 60.8158C74.9424 59.6586 73.5353 58.8995 72.0505 58.5386V2.8186C72.0505 1.68603 71.1323 0.767822 69.9997 0.767822C68.8671 0.767822 67.9489 1.68603 67.9489 2.8186V5.15157H52.4644C50.1249 5.15157 48.2218 7.0547 48.2218 9.39423V13.9191H34.9292C34.1903 13.9191 33.5087 14.3167 33.1447 14.9595C32.7805 15.6026 32.7906 16.3915 33.1707 17.0251L39.1133 26.9295L33.1707 36.834C32.7906 37.4675 32.7805 38.2567 33.1447 38.8995C33.5087 39.5424 34.1903 39.9399 34.9292 39.9399H54.6566C55.7892 39.9399 56.7074 39.0217 56.7074 37.8892C56.7074 36.7566 55.7892 35.8384 54.6566 35.8384H38.5514L43.2635 27.9847C43.6532 27.3353 43.6532 26.5237 43.2635 25.8743L38.5514 18.0206H48.2221V29.1214C48.2221 30.254 49.1403 31.1722 50.2728 31.1722H67.9492V58.5386C66.4644 58.8995 65.0573 59.6586 63.9001 60.8158L42.601 82.1149L41.9371 81.451C36.8646 76.3785 28.6106 76.3779 23.5378 81.451L0.600735 104.388C-0.200164 105.189 -0.200164 106.488 0.600735 107.288C1.00105 107.689 1.52605 107.889 2.05077 107.889C2.5755 107.889 3.1005 107.689 3.50081 107.288L26.4378 84.3511C29.9116 80.8779 35.5635 80.8776 39.0367 84.3511L39.7007 85.015L4.98448 119.731C4.18359 120.532 4.18359 121.831 4.98448 122.632C5.78538 123.432 7.08394 123.432 7.88456 122.632L37.1213 93.3948L40.2432 96.5166C41.4974 97.7712 43.1454 98.3981 44.7932 98.3981C46.4409 98.3981 48.0886 97.7712 49.3432 96.5166L56.7489 89.1108C56.7593 89.1007 56.7902 89.0696 56.8487 89.0696C56.9073 89.0696 56.9384 89.1007 56.9485 89.1108L59.9706 92.1329C62.4796 94.6417 66.5618 94.6414 69.0706 92.1329L77.2494 83.9538C78.0866 83.1165 79.4492 83.1165 80.2864 83.9538C81.0873 84.7547 82.3859 84.7547 83.1865 83.9538C83.9874 83.1529 83.9874 81.8544 83.1865 81.0537C80.7502 78.6171 76.7853 78.6171 74.349 81.0537L66.1702 89.2325C65.2608 90.1422 63.7804 90.1425 62.8707 89.2325L59.8486 86.2105C59.0472 85.409 57.9819 84.968 56.8485 84.968C55.7151 84.968 54.6498 85.4093 53.8486 86.2105L46.4428 93.6163C45.5334 94.526 44.0532 94.526 43.1435 93.6163L40.0217 90.4944L66.8005 63.7156C67.6553 62.8611 68.7914 62.3903 70.0003 62.3903C71.2091 62.3903 72.3453 62.8608 73.2 63.7156L98.8829 89.3985L96.857 91.4244C95.9473 92.3338 94.4674 92.3338 93.5577 91.4244L89.3014 87.1681C88.5005 86.3672 87.2019 86.3672 86.4013 87.1681C85.6004 87.969 85.6004 89.2675 86.4013 90.0681L90.6576 94.3245C91.9119 95.579 93.5599 96.206 95.2076 96.206C96.8554 96.206 98.5031 95.579 99.7576 94.3245L101.784 92.2986L132.116 122.631C132.517 123.032 133.042 123.232 133.566 123.232C134.091 123.232 134.616 123.032 135.016 122.631C135.817 121.83 135.817 120.532 135.016 119.731L92.6275 77.3435L96.5795 73.3917C98.2622 71.7093 100.499 70.7826 102.879 70.7826C105.259 70.7826 107.496 71.7093 109.178 73.3917L136.499 100.713C136.9 101.113 137.425 101.314 137.949 101.314C138.474 101.314 138.999 101.113 139.4 100.713C140.2 99.9119 140.2 98.6133 139.399 97.8124V97.8124ZM52.3236 27.0706V9.39423C52.3236 9.3163 52.3868 9.25314 52.4647 9.25314H67.9492V27.0709H52.3236V27.0706Z" fill="white"/>
</svg>
