<svg width="136" height="140" viewBox="0 0 136 140" fill="none" xmlns="http://www.w3.org/2000/svg">
<path d="M134.354 100.205C131.743 96.3669 127.313 95.4299 122.5 97.6945L119.95 98.8175C123.971 90.2452 124.47 80.6894 122.468 71.6632C120.169 61.2964 114.615 51.2536 105.961 41.8137C105.196 40.9789 103.899 40.9226 103.064 41.6879C102.229 42.453 102.173 43.7499 102.939 44.585C111.1 53.487 116.323 62.8963 118.465 72.5511C120.72 82.721 119.408 93.209 113.652 101.59L88.1289 112.828L88.1499 109.946C88.1505 109.873 88.1472 109.8 88.1398 109.728C87.5505 103.803 83.0219 99.0827 77.1268 98.2487C77.1093 98.246 77.0918 98.2438 77.0741 98.2419L54.3894 95.63C45.6665 94.3883 43.4199 89.161 31.6063 86.1803C30.7901 79.2541 31.8781 71.8798 34.8602 64.4869C39.3514 53.353 48.1378 42.5359 60.3183 33.1206C64.8582 36.3395 85.1126 36.7401 89.6451 32.5877C91.9671 34.3511 94.1833 36.1683 96.2478 38.0077C96.6385 38.3561 97.1258 38.5273 97.6111 38.5273C98.1755 38.5273 98.7377 38.2957 99.1426 37.8409C99.896 36.9955 99.821 35.6994 98.9756 34.9461C96.7126 32.93 94.2785 30.9407 91.7254 29.0182C92.3237 26.4812 91.4864 23.512 89.277 21.7445C95.6971 12.0068 97.5644 5.63328 94.985 2.29407C93.2134 0.000200182 91.0095 1.07672 90.0683 1.53665C88.4731 2.31539 87.6033 2.35641 86.1355 1.3961C83.3352 -0.436206 80.3919 -0.495268 77.5014 1.3961C76.015 2.36872 74.8444 2.36872 73.3586 1.3961C70.558 -0.436206 67.6158 -0.495268 64.7248 1.3961C63.24 2.36789 62.3669 2.30774 60.7969 1.52735C59.8568 1.06004 57.6553 -0.034253 55.8725 2.25989C53.3512 5.50504 55.038 11.6776 61.0249 21.0841C60.6582 21.2824 60.3088 21.5151 59.9826 21.7809C57.6015 19.2663 53.7003 16.6438 48.0588 17.2738C43.3794 17.7974 39.9289 16.2511 37.8579 14.8621C36.9173 14.2321 35.6436 14.4831 35.0131 15.4232C34.3825 16.3638 34.6338 17.6375 35.5742 18.268C38.2142 20.038 42.6018 22.0084 48.5138 21.3491C52.8724 20.8602 55.8299 23.0876 57.6709 25.3544C57.6458 25.4419 57.6225 25.53 57.6009 25.618C56.0306 25.6426 53.6837 25.7892 51.0991 26.3268C44.8833 27.6198 40.2694 30.5738 37.7557 34.87C37.1839 35.8473 37.5126 37.1035 38.4898 37.6755C39.4674 38.2473 40.7233 37.9183 41.295 36.9411C45.034 30.5511 54.1605 29.7696 57.7855 29.7207C57.8011 29.7658 57.8194 29.8103 57.8358 29.8552C44.9 39.8337 35.8941 50.9618 31.0575 62.9521C28.0005 70.5309 26.7793 78.1237 27.3992 85.3395C25.4329 85.0485 23.4439 84.8924 21.4454 84.8787V83.6387C21.4454 80.3577 18.7761 77.6887 15.4951 77.6887H6.08229C2.80132 77.6887 0.132019 80.358 0.132019 83.6387V131.393C0.132019 134.674 2.80132 137.343 6.08229 137.343H15.4948C18.7758 137.343 21.4451 134.674 21.4451 131.393V130.809L41.9778 138.451C44.7371 139.478 47.6289 139.999 50.573 139.999H81.1669C85.8443 139.999 90.4049 138.675 94.3556 136.172C135.169 110.299 132.69 111.909 132.926 111.7C136.213 108.782 136.828 103.84 134.354 100.205V100.205ZM85.7973 30.1579C78.2991 32.0512 71.0087 32.0512 63.5088 30.1579C60.2907 29.3444 61.2232 23.605 64.6816 24.4723C71.3912 26.1567 77.9143 26.1567 84.6245 24.4723C88.0228 23.6192 89.067 29.3316 85.7973 30.1579ZM58.9241 5.17637C58.9402 5.1843 58.9564 5.1925 58.9717 5.20016C61.7468 6.57938 64.1785 6.6543 66.97 4.82801C70.4634 2.54125 70.8427 6.20778 75.4296 6.20778C77.6379 6.20778 78.8566 5.41043 79.7464 4.82801C81.233 3.85512 82.4039 3.85567 83.8903 4.82801C86.6941 6.66278 89.067 6.57227 91.9228 5.19496C92.3447 6.71582 91.3899 11.2497 85.3097 20.3021C82.2904 20.2507 77.9089 23.2161 65.5052 20.4558C59.4382 11.2863 58.5 6.70844 58.9241 5.17637V5.17637ZM130.315 108.533L92.1607 132.71C88.8677 134.796 85.0661 135.899 81.1671 135.899H50.5733C48.1192 135.899 45.7086 135.465 43.4084 134.609L21.4451 126.434V104.353C21.4451 103.22 20.5272 102.302 19.3949 102.302C18.2626 102.302 17.3446 103.22 17.3446 104.353V131.394C17.3446 132.414 16.5148 133.244 15.4951 133.244H6.08229C5.06237 133.244 4.23276 132.414 4.23276 131.394V83.6398C4.23276 82.6199 5.06237 81.7905 6.08229 81.7905H15.4948C16.5148 81.7905 17.3444 82.6201 17.3444 83.6398V94.7671C17.3444 95.8996 18.2623 96.8176 19.3946 96.8176C20.5269 96.8176 21.4448 95.8996 21.4448 94.7671V88.9806C38.4064 89.1105 42.2201 98.0505 53.8406 99.6941C53.8581 99.6969 53.8756 99.699 53.8931 99.701L76.5767 102.313C80.5486 102.886 83.6054 106.049 84.0478 110.031L84.0194 113.931H62.8649C61.7326 113.931 60.8144 114.849 60.8144 115.982C60.8144 117.114 61.7323 118.032 62.8649 118.032H86.0548C86.3138 118.032 86.6129 117.975 86.8732 117.861C86.9151 117.843 124.133 101.456 124.176 101.437C126.859 100.245 129.305 100.075 130.963 102.512C132.253 104.406 131.967 106.967 130.315 108.533Z" fill="white"/>
<path d="M75.1933 93.0289C76.3256 93.0289 77.2438 92.1109 77.2438 90.9784V87.5795C83 86.6455 86.3586 81.9864 87.0892 77.6398C88.002 72.2101 85.1579 67.4881 79.844 65.6099C78.905 65.2779 78.0409 64.9605 77.2436 64.654V51.5804C79.6692 51.9826 81.1256 53.2379 81.2317 53.3317C82.0646 54.0891 83.3535 54.0331 84.1178 53.2046C84.8856 52.3722 84.8331 51.075 84.0008 50.3072C83.8561 50.1738 81.3449 47.9127 77.2436 47.44V44.524C77.2436 43.3914 76.3256 42.4735 75.1931 42.4735C74.0608 42.4735 73.1428 43.3914 73.1428 44.524V47.6057C72.6485 47.7003 72.142 47.8206 71.6217 47.9773C68.1436 49.0248 65.5437 52.0072 64.8363 55.7601C64.1946 59.1658 65.2744 62.441 67.6541 64.3075C69.0205 65.3791 70.7404 66.3602 73.1428 67.4091V83.6242C70.7716 83.5239 69.312 83.0787 66.7657 81.413C65.8183 80.7933 64.5473 81.0583 63.9274 82.0063C63.3076 82.9538 63.5731 84.2247 64.5208 84.8446C67.8679 87.0343 70.1055 87.6055 73.1428 87.7236V90.9784C73.1428 92.1109 74.0608 93.0289 75.1933 93.0289V93.0289ZM70.1851 61.0809C69.0145 60.1627 68.5089 58.4149 68.8663 56.5197C69.1977 54.7621 70.406 52.6265 72.8046 51.9041C72.9186 51.8697 73.0307 51.8401 73.1428 51.81V62.8856C71.9151 62.2726 70.9523 61.6828 70.1851 61.0809V61.0809ZM78.4773 69.4763C83.5797 71.2796 83.2636 75.6606 83.0451 76.9603C82.5928 79.6512 80.6175 82.5239 77.2436 83.3885V69.032C77.6428 69.178 78.0505 69.3254 78.4773 69.4763V69.4763Z" fill="white"/>
</svg>
